<!-- Generated by IcoMoon.io -->
<svg version="1.1" xmlns="http://www.w3.org/2000/svg" width="1472" height="1024" viewBox="0 0 1472 1024">
<g id="icomoon-ignore">
</g>
<path fill="#000" d="M1451.49 943.991c0 39.594-32.412 72.009-72.009 72.009h-576.735c-18.711 0-37.452-7.905-50.4-21.609-13.671-12.945-20.883-31.689-20.883-50.4s7.212-37.452 20.883-50.4c12.945-13.671 31.689-21.609 50.4-21.609h576.735c39.594 0 72.009 32.412 72.009 72.009zM1451.49 512c0 38.871-32.412 71.283-72.009 71.283h-1296.728c-18.711 0-37.452-7.212-50.4-20.883-13.671-13.671-20.883-31.689-20.883-50.4 0-19.434 7.212-37.452 20.883-51.123 12.945-13.671 31.689-20.883 50.4-20.883h1296.728c39.594 0 72.009 32.412 72.009 72.009zM1379.515 151.295c18.711 0 37.452-7.905 50.4-21.609 13.671-12.945 21.609-31.689 21.609-50.4s-7.905-37.452-21.609-50.4c-12.945-13.671-31.689-20.883-50.4-20.883h-864.708c-9.354 0-18.711 1.449-27.372 5.040s-16.569 8.631-23.025 15.843c-7.212 6.489-12.252 14.394-15.843 23.025s-5.040 17.985-5.040 27.372c0 9.354 1.449 18.711 5.040 27.372s8.631 16.569 15.843 23.025c6.489 7.212 14.394 12.252 23.025 15.843s17.985 5.763 27.372 5.763h864.708z"></path>
</svg>
